<?xml version="1.0" standalone="no"?>
<!DOCTYPE svg PUBLIC "-//W3C//DTD SVG 20010904//EN"
 "http://www.w3.org/TR/2001/REC-SVG-20010904/DTD/svg10.dtd">
<svg version="1.0" xmlns="http://www.w3.org/2000/svg"
 width="1024.000000pt" height="1024.000000pt" viewBox="0 0 1024.000000 1024.000000"
 preserveAspectRatio="xMidYMid meet">
<metadata>
Created by potrace 1.16, written by Peter Selinger 2001-2019
</metadata>
<g transform="translate(0.000000,1024.000000) scale(0.100000,-0.100000)"
fill="#9a8d7c" stroke="none">
<path d="M5067 8643 c-4 -3 -7 -28 -7 -54 0 -38 -4 -51 -20 -59 -18 -9 -20
-21 -20 -100 0 -79 -2 -91 -20 -100 -17 -9 -20 -21 -20 -80 0 -59 -3 -71 -20
-80 -18 -9 -20 -21 -20 -100 0 -79 -2 -91 -20 -100 -17 -9 -20 -21 -20 -80 0
-59 -3 -71 -20 -80 -18 -9 -20 -21 -20 -100 0 -79 -2 -91 -20 -100 -17 -9 -20
-21 -20 -80 0 -59 -3 -71 -20 -80 -18 -9 -20 -21 -20 -98 0 -76 -2 -89 -20
-100 -17 -10 -20 -23 -20 -80 0 -56 -3 -69 -20 -80 -17 -11 -20 -23 -20 -96 0
-70 -3 -86 -20 -101 -16 -15 -20 -31 -20 -84 0 -55 -3 -68 -20 -79 -17 -11
-20 -23 -20 -96 0 -70 -3 -86 -20 -101 -16 -14 -20 -31 -20 -80 0 -49 -4 -66
-20 -80 -16 -14 -20 -31 -20 -80 0 -49 -4 -66 -20 -80 -17 -15 -20 -31 -20
-100 0 -69 -3 -85 -20 -100 -16 -14 -20 -31 -20 -80 0 -49 -4 -66 -20 -80 -17
-15 -20 -31 -20 -100 0 -69 -3 -85 -20 -100 -16 -14 -20 -31 -20 -79 0 -49 -4
-65 -20 -79 -17 -14 -20 -29 -20 -102 0 -74 -2 -86 -20 -95 -17 -9 -20 -21
-20 -80 0 -59 -3 -71 -20 -80 -17 -9 -20 -21 -20 -80 0 -59 -3 -71 -20 -80
-18 -9 -20 -21 -20 -100 0 -79 -2 -91 -20 -100 -17 -9 -20 -21 -20 -80 0 -59
-3 -71 -20 -80 -18 -9 -20 -21 -20 -98 0 -76 -2 -89 -20 -100 -17 -10 -20 -23
-20 -80 0 -56 -3 -69 -20 -80 -15 -9 -20 -23 -20 -55 0 -24 5 -48 12 -55 9 -9
247 -12 1007 -12 l996 0 33 31 33 31 -20 22 c-18 19 -21 35 -21 104 0 71 -3
83 -20 92 -17 9 -20 21 -20 80 0 59 -3 71 -20 80 -18 9 -20 21 -20 100 0 79
-2 91 -20 100 -17 9 -20 21 -20 80 0 59 -3 71 -20 80 -18 9 -20 21 -20 100 0
79 -2 91 -20 100 -17 9 -20 21 -20 80 0 59 -3 71 -20 80 -18 9 -20 21 -20 95
0 73 -3 88 -20 102 -16 14 -20 30 -20 80 0 51 -4 67 -20 80 -16 14 -20 30 -20
79 0 48 -4 65 -20 79 -17 15 -20 31 -20 100 0 69 -3 85 -20 100 -16 14 -20 31
-20 80 0 49 -4 66 -20 80 -17 15 -20 31 -20 101 0 73 -3 85 -20 96 -17 11 -20
24 -20 79 0 53 -4 69 -20 84 -17 15 -20 31 -20 101 0 73 -3 85 -20 96 -17 11
-20 24 -20 80 0 57 -3 70 -20 80 -18 11 -20 24 -20 100 0 77 -2 89 -20 98 -17
9 -20 21 -20 80 0 59 -3 72 -20 82 -18 11 -20 24 -20 100 0 77 -2 89 -20 98
-17 9 -20 21 -20 80 0 59 -3 71 -20 80 -17 9 -20 21 -20 80 0 59 -3 71 -20 80
-18 9 -20 21 -20 100 0 79 -2 91 -20 100 -17 9 -20 21 -20 80 0 59 -3 71 -20
80 -18 9 -20 21 -20 100 0 79 -2 91 -20 100 -17 9 -20 21 -20 80 0 59 -3 71
-20 80 -17 9 -20 21 -20 79 0 54 -4 70 -16 75 -21 8 -49 8 -57 -1z"/>
<path d="M4728 8536 c-16 -19 -28 -44 -28 -55 0 -12 -9 -26 -20 -33 -12 -8
-20 -24 -20 -40 0 -17 -8 -31 -20 -38 -13 -7 -20 -21 -20 -40 0 -19 -7 -33
-20 -40 -13 -7 -20 -21 -20 -40 0 -19 -7 -33 -20 -40 -13 -7 -20 -21 -20 -40
0 -19 -7 -33 -20 -40 -13 -7 -20 -21 -20 -40 0 -19 -7 -33 -20 -40 -13 -7 -20
-21 -20 -40 0 -19 -7 -33 -20 -40 -13 -7 -20 -21 -20 -40 0 -19 -7 -33 -20
-40 -13 -7 -20 -21 -20 -40 0 -19 -7 -33 -20 -40 -13 -7 -20 -21 -20 -40 0
-19 -7 -33 -20 -40 -13 -7 -20 -21 -20 -40 0 -19 -7 -33 -20 -40 -13 -7 -20
-21 -20 -40 0 -19 -7 -33 -20 -40 -13 -7 -20 -21 -20 -40 0 -19 -7 -33 -20
-40 -13 -7 -20 -21 -20 -40 0 -19 -7 -33 -20 -40 -13 -7 -20 -21 -20 -40 0
-19 -7 -33 -20 -40 -13 -7 -20 -21 -20 -40 0 -19 -7 -33 -20 -40 -13 -7 -20
-21 -20 -40 0 -19 -7 -33 -20 -40 -13 -7 -20 -21 -20 -40 0 -19 -7 -33 -20
-40 -13 -7 -20 -21 -20 -40 0 -19 -7 -33 -20 -40 -13 -7 -20 -21 -20 -40 0
-19 -7 -33 -20 -40 -13 -7 -20 -21 -20 -40 0 -19 -7 -33 -20 -40 -12 -6 -20
-21 -20 -35 0 -14 -9 -34 -20 -45 -11 -11 -20 -29 -20 -40 0 -11 -9 -29 -20
-40 -11 -11 -20 -30 -20 -41 0 -12 -7 -27 -16 -34 -9 -6 -18 -24 -19 -39 -2
-15 -11 -33 -20 -40 -10 -7 -19 -25 -20 -40 -2 -15 -11 -33 -20 -40 -9 -6 -18
-24 -19 -39 -2 -15 -11 -34 -21 -41 -9 -7 -19 -25 -20 -40 -2 -15 -11 -33 -20
-40 -10 -7 -19 -25 -20 -40 -2 -15 -11 -33 -20 -40 -9 -6 -18 -24 -19 -39 -2
-15 -11 -33 -20 -40 -10 -7 -19 -26 -20 -41 -2 -16 -11 -33 -20 -38 -9 -5 -16
-20 -16 -34 0 -13 -9 -32 -20 -41 -11 -10 -20 -28 -20 -40 0 -13 -9 -31 -20
-40 -11 -10 -20 -28 -20 -40 0 -13 -9 -31 -20 -40 -11 -10 -20 -28 -20 -40 0
-13 -9 -31 -20 -40 -11 -10 -20 -28 -20 -40 0 -13 -9 -31 -20 -40 -11 -10 -20
-27 -20 -39 0 -11 -9 -29 -20 -39 -11 -10 -20 -28 -20 -40 0 -12 -9 -30 -20
-40 -11 -10 -20 -28 -20 -40 0 -12 -9 -30 -20 -40 -11 -10 -20 -28 -20 -40 0
-12 -9 -30 -20 -40 -11 -10 -20 -28 -20 -40 0 -12 -9 -30 -20 -40 -11 -10 -20
-28 -20 -40 0 -12 -9 -30 -20 -40 -11 -10 -20 -28 -20 -40 0 -12 -9 -30 -20
-40 -11 -10 -20 -28 -20 -40 0 -12 -9 -30 -20 -40 -11 -10 -20 -28 -20 -40 0
-12 -9 -30 -20 -40 -11 -10 -20 -28 -20 -40 0 -12 -9 -30 -20 -40 -11 -10 -20
-28 -20 -40 0 -12 -9 -30 -20 -40 -11 -10 -20 -28 -20 -40 0 -12 -9 -30 -20
-40 -11 -10 -20 -28 -20 -40 0 -12 -9 -30 -20 -40 -11 -10 -20 -28 -20 -40 0
-12 -9 -30 -20 -40 -11 -10 -20 -28 -20 -40 0 -12 -9 -30 -20 -40 -11 -10 -20
-29 -20 -41 0 -13 -9 -29 -20 -36 -12 -8 -20 -24 -20 -39 0 -18 -13 -38 -40
-63 -28 -25 -40 -44 -40 -64 0 -16 -8 -32 -20 -40 -26 -16 -29 -106 -4 -116 9
-3 264 -6 567 -6 l552 0 34 35 c32 33 34 38 28 89 -5 49 -3 56 20 78 23 21 25
29 20 80 -4 51 -2 59 20 80 23 21 25 29 20 80 -4 50 -2 59 19 79 21 20 24 29
19 79 -5 51 -3 59 20 80 23 21 25 29 20 80 -5 51 -3 59 20 80 23 21 25 29 20
80 -5 51 -3 58 20 78 23 20 25 27 20 80 -5 53 -3 60 19 80 22 19 24 26 19 77
-5 52 -4 59 20 81 23 21 25 28 20 80 -5 51 -4 58 20 80 23 21 25 28 20 80 -5
51 -4 58 20 80 23 21 25 28 20 80 -5 51 -4 58 20 79 23 22 25 29 20 83 -5 54
-3 61 18 76 21 14 23 23 21 80 -3 57 -1 66 20 80 20 14 22 23 20 75 -3 50 0
62 19 80 18 17 22 30 20 80 -1 50 2 63 20 80 18 17 22 30 20 80 -1 50 2 64 19
78 16 14 20 30 20 80 0 51 4 67 20 80 16 14 20 30 20 80 0 51 4 67 20 80 16
14 20 30 20 80 0 51 4 67 20 80 16 14 20 30 20 80 0 51 4 67 20 80 16 14 20
30 20 79 0 48 4 65 20 79 16 14 20 31 20 80 0 49 4 66 20 80 16 14 20 31 20
80 0 49 4 66 20 80 16 14 20 31 20 80 0 49 4 66 20 80 16 14 20 31 20 80 0 49
4 66 20 80 16 14 20 31 20 80 0 49 4 66 20 80 16 14 20 31 20 81 0 50 4 66 19
76 30 21 33 168 3 168 -4 0 -19 -16 -34 -34z"/>
<path d="M5427 8483 c-14 -14 -6 -61 13 -78 16 -14 20 -31 20 -80 0 -49 4 -66
20 -80 16 -14 20 -31 20 -80 0 -49 4 -66 20 -80 16 -14 20 -31 20 -80 0 -49 4
-66 20 -80 16 -14 20 -31 20 -80 0 -49 4 -66 20 -80 16 -14 20 -31 20 -80 0
-49 4 -66 20 -80 16 -14 20 -31 20 -80 0 -49 4 -66 20 -80 16 -14 20 -31 20
-79 0 -49 4 -65 20 -79 16 -13 20 -29 20 -80 0 -50 4 -66 20 -80 16 -13 20
-29 20 -80 0 -50 4 -66 20 -80 16 -13 20 -29 20 -80 0 -50 4 -66 20 -80 16
-13 20 -29 20 -80 0 -51 4 -66 21 -80 17 -15 20 -27 17 -77 -2 -51 1 -62 20
-80 19 -18 22 -30 21 -82 -2 -52 1 -63 20 -77 19 -14 21 -25 20 -79 -2 -55 1
-65 20 -78 20 -14 22 -24 19 -80 -2 -57 0 -66 20 -80 20 -14 22 -22 18 -75 -4
-54 -3 -61 21 -83 24 -22 25 -29 20 -81 -5 -51 -3 -58 19 -77 21 -19 23 -28
19 -80 -4 -53 -1 -61 21 -80 22 -20 24 -27 19 -80 -5 -53 -3 -60 20 -80 23
-20 25 -27 20 -80 -5 -53 -3 -60 20 -80 23 -20 25 -27 20 -80 -5 -53 -3 -60
20 -80 23 -20 25 -27 20 -78 -5 -50 -2 -59 19 -79 21 -20 23 -29 19 -79 -5
-51 -3 -59 20 -80 22 -21 24 -29 20 -80 -5 -51 -3 -59 20 -80 23 -22 25 -29
20 -78 -5 -48 -3 -58 18 -80 20 -22 23 -34 21 -84 -3 -50 0 -60 19 -74 19 -13
22 -23 20 -77 -2 -57 1 -64 31 -95 l33 -34 532 0 c292 0 538 3 547 6 26 10 22
135 -4 159 -11 10 -20 30 -20 44 0 15 -8 31 -20 39 -12 7 -20 23 -20 40 0 16
-8 32 -20 40 -11 7 -20 23 -20 36 0 12 -9 31 -20 41 -11 10 -20 28 -20 40 0
12 -9 30 -20 40 -11 10 -20 28 -20 40 0 12 -9 30 -20 40 -11 10 -20 28 -20 40
0 12 -9 30 -20 40 -11 10 -20 28 -20 40 0 12 -9 30 -20 40 -11 10 -20 28 -20
40 0 12 -9 30 -20 40 -11 10 -20 28 -20 40 0 12 -9 30 -20 40 -11 10 -20 28
-20 40 0 12 -9 30 -20 40 -11 10 -20 28 -20 40 0 12 -9 30 -20 40 -11 10 -20
28 -20 40 0 12 -9 30 -20 40 -11 10 -20 28 -20 40 0 12 -9 30 -20 40 -11 10
-20 28 -20 40 0 12 -9 30 -20 40 -11 10 -20 28 -20 40 0 12 -9 30 -20 40 -11
10 -20 28 -20 40 0 12 -9 30 -20 40 -11 10 -20 28 -20 40 0 12 -9 30 -20 40
-11 10 -20 28 -20 40 0 12 -9 30 -20 40 -11 10 -20 28 -20 39 0 12 -9 29 -20
39 -11 9 -20 27 -20 40 0 12 -9 30 -20 40 -11 9 -20 27 -20 40 0 12 -9 30 -20
40 -11 9 -20 27 -20 40 0 12 -9 30 -20 40 -11 9 -20 27 -20 40 0 12 -9 30 -20
40 -11 9 -20 27 -20 40 0 12 -9 30 -20 40 -11 9 -20 27 -20 40 0 12 -9 30 -20
40 -11 9 -20 28 -20 41 0 14 -7 29 -16 34 -9 5 -18 22 -20 38 -1 15 -10 34
-20 41 -9 7 -18 25 -20 40 -1 15 -10 33 -20 40 -9 7 -18 25 -20 40 -1 15 -10
33 -20 40 -9 7 -18 25 -20 40 -1 15 -10 33 -19 39 -9 7 -18 24 -19 39 -2 14
-11 31 -20 38 -10 7 -19 24 -20 38 -2 14 -12 35 -24 47 -12 12 -19 28 -15 40
3 14 -2 24 -16 31 -14 8 -21 21 -21 41 0 19 -7 33 -20 40 -13 7 -20 21 -20 40
0 19 -7 33 -20 40 -13 7 -20 21 -20 40 0 19 -7 33 -20 40 -13 7 -20 21 -20 40
0 19 -7 33 -20 40 -13 7 -20 21 -20 40 0 19 -7 33 -20 40 -13 7 -20 21 -20 40
0 19 -7 33 -20 40 -13 7 -20 21 -20 40 0 19 -7 33 -20 40 -13 7 -20 21 -20 40
0 19 -7 33 -20 40 -13 7 -20 21 -20 40 0 19 -7 33 -20 40 -13 7 -20 21 -20 40
0 19 -7 33 -20 40 -13 7 -20 21 -20 40 0 19 -7 33 -20 40 -13 7 -20 21 -20 40
0 19 -7 33 -20 40 -12 7 -20 21 -20 38 0 19 -12 37 -40 61 -29 25 -40 43 -40
63 0 17 -7 31 -20 38 -13 7 -20 21 -20 40 0 19 -7 33 -20 40 -13 7 -20 21 -20
40 0 19 -7 33 -20 40 -13 7 -20 21 -20 40 0 19 -7 33 -20 40 -13 7 -20 21 -20
40 0 19 -7 33 -20 40 -12 7 -20 21 -20 38 0 16 -8 32 -20 40 -12 7 -20 23 -20
41 0 29 -14 41 -49 41 -10 0 -21 -3 -24 -7z"/>
<path d="M2467 7596 c-3 -8 -3 -39 0 -70 5 -49 3 -58 -16 -73 l-21 -18 2
-1505 3 -1505 35 0 c32 0 35 3 38 32 2 20 11 37 23 43 12 7 19 21 19 40 0 19
7 33 20 40 13 7 20 21 20 40 0 19 7 33 20 40 13 7 20 21 20 40 0 19 7 33 20
40 13 7 20 21 20 40 0 19 7 33 20 40 13 7 20 21 20 40 0 19 7 33 20 40 13 7
20 21 20 40 0 19 7 33 20 40 13 7 20 21 20 40 0 19 7 33 20 40 13 7 20 21 20
40 0 19 7 33 20 40 12 7 20 21 20 38 0 16 8 32 20 40 11 7 20 23 20 37 0 16
14 39 40 64 26 25 40 47 40 64 0 16 8 31 20 37 13 7 20 21 20 40 0 19 7 33 20
40 13 7 20 21 20 40 0 19 7 33 20 40 18 9 20 21 20 100 0 79 -2 91 -20 100
-17 9 -20 21 -20 74 0 50 -4 67 -20 81 -14 13 -20 31 -20 60 0 29 -6 47 -20
60 -14 13 -20 31 -20 60 0 29 -6 47 -20 60 -14 13 -20 31 -20 60 0 29 -6 47
-20 60 -14 13 -20 31 -20 60 0 29 -6 47 -20 60 -14 13 -20 31 -20 60 0 29 -6
47 -20 60 -14 13 -20 31 -20 60 0 29 -6 47 -20 60 -14 13 -20 31 -20 60 0 29
-6 47 -20 60 -14 13 -20 31 -20 60 0 29 -6 47 -20 60 -14 13 -20 31 -20 60 0
29 -6 47 -20 60 -16 14 -20 31 -20 81 0 53 -3 66 -20 76 -15 10 -20 24 -20 60
0 37 -4 50 -20 58 -16 8 -20 21 -20 60 0 39 -4 52 -20 60 -16 8 -20 21 -20 59
0 35 -5 53 -20 66 -11 10 -20 31 -20 47 0 21 -5 28 -19 28 -10 0 -21 -6 -24
-14z"/>
<path d="M7690 7542 c0 -16 -9 -37 -20 -47 -14 -13 -20 -31 -20 -60 0 -29 -6
-47 -20 -60 -14 -13 -20 -31 -20 -60 0 -29 -6 -47 -20 -60 -14 -13 -20 -31
-20 -60 0 -29 -6 -47 -20 -60 -14 -13 -20 -31 -20 -60 0 -29 -6 -47 -20 -60
-14 -13 -20 -31 -20 -60 0 -29 -6 -47 -20 -60 -14 -13 -20 -31 -20 -60 0 -29
-6 -47 -20 -60 -14 -13 -20 -31 -20 -60 0 -29 -6 -47 -20 -60 -14 -13 -20 -31
-20 -60 0 -29 -6 -47 -20 -60 -14 -13 -20 -31 -20 -60 0 -29 -6 -47 -20 -60
-14 -13 -20 -31 -20 -60 0 -29 -6 -47 -20 -60 -14 -13 -20 -31 -20 -60 0 -29
-6 -47 -20 -60 -14 -13 -20 -31 -20 -60 0 -29 -6 -47 -20 -60 -16 -14 -20 -31
-20 -80 0 -49 -4 -66 -20 -80 -14 -13 -20 -31 -20 -60 0 -29 -6 -47 -20 -60
-16 -14 -20 -31 -20 -81 0 -53 3 -66 20 -76 15 -10 20 -24 20 -60 0 -37 4 -50
20 -58 13 -7 20 -21 20 -40 0 -19 7 -33 20 -40 13 -7 20 -21 20 -40 0 -19 7
-33 20 -40 13 -7 20 -21 20 -40 0 -19 7 -33 20 -40 13 -7 20 -21 20 -40 0 -19
7 -33 20 -40 13 -7 20 -21 20 -40 0 -19 7 -33 20 -40 13 -7 20 -21 20 -40 0
-19 7 -33 20 -40 13 -7 20 -21 20 -40 0 -19 7 -33 20 -40 13 -7 20 -21 20 -40
0 -19 7 -33 20 -40 13 -7 20 -21 20 -40 0 -19 7 -33 20 -40 12 -7 20 -21 20
-38 0 -19 12 -37 40 -62 28 -25 40 -43 40 -62 0 -17 8 -31 20 -38 12 -7 20
-21 20 -38 1 -30 52 -88 69 -77 8 4 11 469 11 1556 0 1542 0 1549 -20 1549
-15 0 -20 -7 -20 -28z"/>
<path d="M8137 7324 c-15 -15 -7 -63 13 -74 17 -9 20 -21 20 -78 0 -55 4 -71
20 -85 16 -13 20 -29 20 -80 0 -50 4 -66 20 -80 16 -13 20 -29 20 -80 0 -50 4
-66 20 -80 17 -14 20 -29 20 -102 0 -74 2 -86 20 -95 17 -9 20 -21 20 -78 0
-56 3 -69 20 -80 16 -10 20 -22 18 -57 -1 -35 4 -50 20 -66 19 -17 22 -31 22
-102 0 -71 3 -84 20 -95 17 -10 20 -23 20 -80 0 -57 3 -69 20 -80 18 -11 20
-22 19 -78 -2 -57 1 -67 20 -80 19 -14 21 -24 20 -80 -2 -57 1 -67 20 -80 19
-14 21 -24 20 -80 -2 -57 1 -67 20 -80 19 -14 21 -24 19 -80 -2 -57 0 -66 21
-80 19 -14 22 -23 19 -74 -2 -50 1 -62 21 -84 20 -22 23 -32 19 -76 -5 -44 -2
-56 19 -80 20 -24 23 -36 19 -83 -4 -49 -2 -58 20 -78 22 -21 24 -29 20 -79
-5 -51 -3 -59 19 -80 23 -21 25 -29 20 -80 -5 -51 -3 -58 20 -78 23 -20 25
-27 20 -80 -5 -53 -3 -60 20 -80 21 -19 24 -28 19 -60 -5 -31 -2 -41 20 -61
22 -20 25 -30 20 -58 -5 -29 -2 -38 27 -68 l34 -35 358 0 359 0 29 29 c24 24
29 38 29 78 0 37 -4 51 -20 61 -12 7 -20 23 -20 40 0 16 -8 32 -20 40 -12 7
-20 23 -20 40 0 16 -8 32 -20 40 -12 7 -20 23 -20 40 0 16 -8 32 -20 40 -12 7
-20 23 -20 40 0 16 -8 32 -20 40 -12 7 -20 23 -20 40 0 16 -8 32 -20 40 -12 7
-20 23 -20 40 0 16 -8 32 -20 40 -12 7 -20 23 -20 40 0 16 -8 32 -20 40 -12 7
-20 23 -20 40 0 16 -8 32 -20 40 -12 7 -20 23 -20 40 0 16 -8 32 -20 40 -12 7
-20 23 -20 40 0 16 -8 32 -20 40 -12 7 -20 23 -20 40 0 16 -8 32 -20 40 -11 7
-20 23 -20 36 0 12 -9 31 -20 41 -11 10 -20 28 -20 40 0 12 -9 30 -20 40 -11
10 -20 28 -20 40 0 12 -9 30 -20 40 -11 10 -20 28 -20 40 0 12 -9 30 -20 40
-11 10 -18 26 -15 35 3 10 -5 26 -20 40 -15 14 -23 30 -20 40 3 9 -4 25 -15
35 -11 10 -20 28 -20 40 0 12 -9 30 -20 40 -11 10 -20 28 -20 40 0 12 -9 30
-20 40 -11 10 -20 28 -20 40 0 12 -9 30 -20 40 -11 10 -20 28 -20 40 0 12 -9
30 -20 40 -11 10 -20 29 -20 41 0 13 -9 29 -20 36 -12 8 -20 24 -20 39 0 14
-9 34 -20 44 -11 10 -20 29 -20 41 0 13 -9 29 -20 36 -12 8 -20 24 -20 40 0
17 -8 33 -20 40 -12 8 -20 24 -20 40 0 17 -8 33 -20 40 -12 8 -20 24 -20 40 0
17 -8 33 -20 40 -12 8 -20 24 -20 40 0 17 -8 33 -20 40 -12 8 -20 24 -20 40 0
17 -8 33 -20 40 -12 8 -20 24 -20 40 0 17 -8 33 -20 40 -12 8 -20 24 -20 40 0
17 -8 33 -20 40 -12 8 -20 24 -20 40 0 17 -8 33 -20 40 -12 8 -20 24 -20 40 0
17 -8 33 -20 40 -12 8 -20 24 -20 40 0 17 -8 33 -20 40 -12 8 -20 24 -20 40 0
17 -8 31 -20 38 -13 7 -20 21 -20 40 0 19 -7 33 -20 40 -13 7 -20 21 -20 40 0
19 -7 33 -20 40 -13 7 -20 21 -20 40 0 19 -7 33 -19 40 -12 6 -21 23 -23 43
-3 28 -7 32 -33 35 -17 2 -34 0 -38 -4z"/>
<path d="M1977 7222 c-15 -15 -27 -38 -27 -50 0 -13 -17 -39 -40 -61 -26 -25
-40 -47 -40 -64 0 -16 -8 -31 -20 -37 -13 -7 -20 -21 -20 -40 0 -19 -7 -33
-20 -40 -13 -7 -20 -21 -20 -40 0 -19 -7 -33 -20 -40 -12 -7 -20 -21 -20 -38
0 -16 -8 -32 -20 -40 -12 -7 -20 -23 -20 -40 0 -16 -8 -32 -20 -40 -12 -7 -20
-23 -20 -40 0 -16 -8 -32 -20 -40 -12 -7 -20 -23 -20 -40 0 -16 -8 -32 -20
-40 -12 -7 -20 -23 -20 -40 0 -16 -8 -32 -20 -40 -12 -7 -20 -23 -20 -40 0
-16 -8 -32 -20 -40 -12 -7 -20 -23 -20 -40 0 -16 -8 -32 -20 -40 -12 -7 -20
-23 -20 -40 0 -16 -8 -32 -20 -40 -12 -7 -20 -23 -20 -40 0 -16 -8 -32 -20
-40 -11 -7 -20 -23 -20 -36 0 -12 -9 -31 -20 -41 -11 -10 -20 -28 -20 -40 0
-12 -9 -30 -20 -40 -11 -10 -20 -28 -20 -40 0 -12 -9 -30 -20 -40 -11 -10 -20
-28 -20 -40 0 -12 -9 -30 -20 -40 -11 -10 -20 -28 -20 -40 0 -12 -9 -30 -20
-40 -11 -10 -20 -28 -20 -40 0 -11 -18 -39 -41 -60 -35 -35 -39 -44 -34 -71 4
-25 0 -39 -20 -62 -14 -16 -25 -38 -25 -47 0 -10 -18 -38 -41 -62 -35 -38 -39
-48 -34 -74 5 -24 2 -36 -14 -53 -12 -13 -24 -33 -26 -46 -2 -12 -11 -30 -20
-40 -8 -9 -15 -26 -15 -38 0 -12 -9 -27 -20 -34 -12 -8 -20 -24 -20 -40 0 -17
-8 -33 -20 -40 -12 -8 -20 -24 -20 -40 0 -17 -8 -33 -20 -40 -12 -8 -20 -24
-20 -40 0 -17 -8 -33 -20 -40 -12 -8 -20 -24 -20 -40 0 -17 -8 -33 -20 -40
-12 -8 -20 -24 -20 -40 0 -17 -8 -33 -20 -40 -12 -8 -20 -24 -20 -40 0 -17 -8
-33 -20 -40 -12 -8 -20 -24 -20 -40 0 -17 -8 -33 -20 -40 -12 -8 -20 -24 -20
-40 0 -17 -8 -33 -20 -40 -12 -8 -20 -24 -20 -40 0 -17 -8 -33 -20 -40 -12 -8
-20 -24 -20 -40 0 -17 -8 -33 -20 -40 -12 -8 -20 -24 -20 -40 0 -16 -8 -33
-20 -41 -18 -13 -21 -23 -18 -88 l3 -74 384 -3 385 -2 34 32 c28 28 33 38 28
65 -3 25 1 40 19 62 21 24 24 37 21 80 -3 43 0 57 20 80 21 25 23 36 19 83 -5
48 -2 57 20 78 22 21 24 29 20 76 -5 45 -2 56 20 82 21 25 24 36 20 80 -5 42
-2 54 18 79 21 24 24 36 20 83 -4 49 -2 58 20 78 23 22 25 29 20 79 -5 50 -4
57 20 79 23 21 25 28 20 80 -5 51 -4 58 20 79 23 22 25 29 20 83 -5 53 -3 61
17 75 20 14 23 24 21 81 -1 56 1 66 20 80 19 13 22 23 20 80 -1 56 1 66 20 80
19 13 22 23 20 80 -1 56 1 66 20 80 19 13 22 23 20 80 -1 56 1 67 19 78 17 11
20 23 20 80 0 57 3 70 20 80 17 11 20 24 20 80 0 57 3 69 20 78 17 9 20 21 20
80 0 59 3 71 20 80 17 9 20 21 20 80 0 59 3 71 20 80 17 9 20 21 20 80 0 59 3
71 20 80 17 9 20 21 20 79 0 56 3 71 19 82 15 11 20 29 23 84 4 82 -10 94 -55
47z"/>
<path d="M531 3820 c-37 -22 21 -120 72 -120 12 0 65 -45 136 -117 69 -69 125
-117 138 -119 13 -1 64 -43 119 -98 53 -53 105 -96 115 -96 10 0 64 -45 120
-100 57 -56 110 -100 121 -100 11 0 63 -43 119 -100 60 -59 109 -100 121 -100
11 0 59 -40 118 -100 64 -65 106 -100 120 -100 13 0 45 -24 80 -59 58 -59 68
-65 103 -62 23 1 22 33 -3 49 -11 7 -20 22 -20 35 -1 12 -18 40 -40 62 -23 22
-40 49 -40 62 0 12 -9 27 -20 33 -12 7 -20 21 -20 38 -1 18 -14 40 -40 67 -23
22 -40 49 -40 62 0 12 -9 27 -20 33 -12 7 -20 21 -20 38 -1 18 -14 40 -40 67
-22 22 -40 49 -40 60 0 11 -9 28 -20 38 -11 9 -20 27 -20 39 -1 13 -18 40 -40
63 -22 22 -40 49 -40 60 0 11 -9 28 -20 38 -11 9 -20 28 -20 42 0 14 -8 29
-20 35 -12 7 -20 21 -20 38 0 18 -12 38 -36 61 -21 18 -38 45 -40 59 -1 15
-10 32 -20 39 -9 7 -18 24 -19 38 -2 14 -24 47 -52 75 l-48 50 -355 -1 c-196
0 -362 -4 -369 -9z"/>
<path d="M2601 3821 c-41 -26 -29 -40 1033 -1101 880 -879 1050 -1045 1074
-1045 23 0 27 4 30 34 3 25 -2 37 -17 48 -13 8 -21 25 -21 41 0 16 -8 32 -20
40 -12 7 -20 23 -20 40 0 16 -8 32 -20 40 -12 7 -20 23 -20 40 0 16 -8 32 -20
40 -12 7 -20 23 -20 40 0 16 -8 32 -20 40 -12 7 -20 23 -20 40 0 16 -8 32 -20
40 -12 7 -20 23 -20 40 0 16 -8 32 -20 40 -12 7 -20 23 -20 40 0 16 -8 32 -20
40 -12 7 -20 23 -20 40 0 16 -8 32 -20 40 -11 7 -20 23 -20 36 0 12 -9 31 -20
41 -11 10 -20 28 -20 40 0 12 -9 30 -20 40 -11 10 -20 28 -20 40 0 12 -9 30
-20 40 -11 10 -20 28 -20 40 0 12 -9 30 -20 40 -11 10 -20 28 -20 40 0 12 -9
30 -20 40 -11 10 -20 28 -20 40 0 12 -9 30 -20 40 -11 10 -20 28 -20 39 0 12
-9 29 -20 39 -11 9 -20 27 -20 40 0 12 -9 30 -20 40 -11 9 -20 27 -20 40 0 12
-9 30 -20 40 -11 9 -20 28 -20 41 0 14 -7 29 -16 34 -9 5 -18 22 -19 37 -2 15
-13 36 -25 47 -12 12 -19 27 -15 37 3 11 -4 25 -20 40 -17 14 -24 28 -20 40 3
11 -4 25 -19 38 -16 14 -23 28 -19 42 3 13 -2 24 -16 33 -13 8 -21 23 -21 40
0 17 -8 33 -20 40 -12 8 -20 24 -20 40 0 17 -8 33 -20 40 -12 8 -20 24 -20 40
0 17 -8 33 -20 40 -12 8 -20 24 -20 38 0 14 -5 31 -12 38 -14 14 -1074 17
-1097 3z"/>
<path d="M6502 3818 c-7 -7 -12 -24 -12 -38 0 -14 -8 -30 -20 -38 -12 -7 -20
-23 -20 -40 0 -16 -8 -32 -20 -40 -12 -7 -20 -23 -20 -40 0 -16 -8 -32 -20
-40 -12 -7 -20 -23 -20 -40 0 -17 -8 -32 -21 -40 -14 -9 -19 -20 -16 -33 4
-14 -3 -28 -19 -42 -15 -13 -22 -27 -19 -38 4 -12 -3 -26 -20 -40 -16 -15 -23
-29 -20 -40 4 -10 -3 -25 -15 -37 -12 -11 -23 -32 -24 -46 -2 -15 -11 -32 -20
-39 -10 -7 -19 -26 -20 -41 -2 -16 -11 -33 -20 -38 -9 -5 -16 -20 -16 -34 0
-13 -9 -32 -20 -41 -11 -10 -20 -28 -20 -40 0 -13 -9 -31 -20 -40 -11 -10 -20
-27 -20 -39 0 -11 -9 -29 -20 -39 -11 -10 -20 -28 -20 -40 0 -12 -9 -30 -20
-40 -11 -10 -20 -28 -20 -40 0 -12 -9 -30 -20 -40 -11 -10 -20 -28 -20 -40 0
-12 -9 -30 -20 -40 -11 -10 -20 -28 -20 -40 0 -12 -9 -30 -20 -40 -11 -10 -20
-28 -20 -40 0 -12 -9 -30 -20 -40 -11 -10 -20 -29 -20 -41 0 -13 -9 -29 -20
-36 -12 -8 -20 -24 -20 -40 0 -17 -8 -33 -20 -40 -12 -8 -20 -24 -20 -40 0
-17 -8 -33 -20 -40 -12 -8 -20 -24 -20 -40 0 -17 -8 -33 -20 -40 -12 -8 -20
-24 -20 -40 0 -17 -8 -33 -20 -40 -12 -8 -20 -24 -20 -40 0 -17 -8 -33 -20
-40 -12 -8 -20 -24 -20 -40 0 -17 -8 -33 -20 -40 -12 -8 -20 -24 -20 -40 0
-17 -8 -33 -20 -40 -11 -7 -20 -23 -20 -36 0 -13 -11 -37 -25 -54 -29 -34 -30
-38 -12 -61 11 -15 37 8 232 203 178 177 225 219 247 220 22 0 29 6 34 28 10
47 12 50 38 54 33 4 754 721 761 755 6 34 14 43 38 43 28 1 77 43 77 68 0 26
21 50 47 54 34 5 471 444 475 477 2 19 10 27 28 29 38 5 170 139 170 173 0 15
-7 29 -16 33 -9 3 -255 6 -548 6 -400 0 -535 -3 -544 -12z"/>
<path d="M8897 3780 c-28 -28 -50 -61 -52 -76 -1 -14 -12 -32 -24 -40 -12 -9
-21 -26 -21 -40 0 -15 -14 -37 -36 -58 -19 -18 -37 -45 -38 -59 -2 -14 -19
-40 -40 -58 -21 -20 -36 -43 -36 -57 0 -12 -9 -30 -20 -39 -11 -10 -20 -28
-20 -40 0 -12 -10 -31 -21 -42 -12 -11 -22 -29 -23 -40 0 -11 -18 -38 -38 -60
-21 -21 -38 -49 -38 -60 0 -12 -9 -29 -20 -38 -11 -10 -20 -27 -20 -38 0 -11
-18 -38 -40 -60 -26 -27 -39 -49 -40 -67 0 -17 -8 -31 -20 -38 -12 -6 -20 -21
-20 -35 0 -14 -9 -33 -20 -42 -11 -10 -20 -27 -20 -38 0 -11 -18 -39 -41 -62
-31 -32 -40 -48 -37 -70 2 -22 9 -29 31 -31 23 -3 38 7 86 57 34 36 67 61 79
61 13 0 60 39 121 100 58 57 109 100 120 100 11 0 62 43 120 100 57 57 108
100 119 100 12 0 68 48 136 116 69 69 125 117 139 118 13 2 62 43 118 99 59
60 104 97 116 97 13 0 53 32 101 80 43 44 86 80 95 80 32 0 47 13 47 40 0 17
8 33 22 42 13 9 19 20 15 30 -5 15 -46 16 -369 17 l-363 1 -48 -50z"/>
<path d="M4265 3770 c-13 -14 -31 -20 -60 -20 -52 0 -65 -13 -65 -67 0 -32 5
-46 20 -55 12 -8 20 -24 20 -40 0 -17 8 -33 20 -40 11 -7 20 -24 20 -37 0 -14
15 -38 40 -62 26 -25 40 -48 40 -64 0 -14 9 -30 20 -37 12 -8 20 -24 20 -40 0
-17 8 -33 20 -40 12 -8 20 -24 20 -40 0 -17 8 -33 20 -40 12 -8 20 -24 20 -40
0 -17 8 -33 20 -40 12 -8 20 -24 20 -40 0 -17 8 -31 20 -38 13 -7 20 -21 20
-40 0 -19 7 -33 20 -40 13 -7 20 -21 20 -40 0 -19 7 -33 20 -40 13 -7 20 -21
20 -40 0 -19 7 -33 20 -40 13 -7 20 -21 20 -40 0 -19 7 -33 20 -40 12 -7 20
-21 20 -38 0 -19 12 -37 40 -62 28 -25 40 -43 40 -62 0 -17 8 -31 20 -38 13
-7 20 -21 20 -40 0 -19 7 -33 20 -40 13 -7 20 -21 20 -40 0 -19 7 -33 20 -40
13 -7 20 -21 20 -40 0 -19 7 -33 20 -40 12 -7 20 -21 20 -38 0 -19 12 -37 40
-62 26 -22 40 -44 40 -59 0 -15 15 -38 39 -60 25 -23 40 -47 43 -66 2 -24 8
-31 31 -33 35 -4 87 45 87 82 0 15 8 30 20 36 13 7 20 21 20 40 0 19 7 33 20
40 12 7 20 21 20 38 0 19 12 37 40 62 28 25 40 43 40 62 0 17 8 31 20 38 13 7
20 21 20 40 0 19 7 33 20 40 13 7 20 21 20 40 0 19 7 33 20 40 13 7 20 21 20
40 0 19 7 33 20 40 13 7 20 21 20 40 0 19 7 33 20 40 13 7 20 21 20 40 0 19 7
33 20 40 12 6 20 21 20 35 0 16 15 39 40 64 26 25 40 47 40 64 0 16 8 31 20
37 13 7 20 21 20 40 0 19 7 33 20 40 13 7 20 21 20 40 0 19 7 33 20 40 13 7
20 21 20 40 0 19 7 33 20 40 12 7 20 21 20 38 0 16 8 32 20 40 12 7 20 23 20
40 0 16 8 32 20 40 11 7 20 23 20 37 0 16 14 39 40 64 26 25 40 47 40 64 0 16
8 31 20 37 12 7 20 21 20 38 0 16 8 32 20 40 15 9 20 23 20 55 0 24 -5 48 -12
55 -9 9 -114 12 -413 12 -387 0 -401 1 -418 20 -16 19 -30 20 -475 20 -445 0
-460 -1 -477 -20z"/>
<path d="M2443 3663 c-10 -4 -13 -128 -13 -573 0 -553 1 -570 19 -580 12 -6
21 -23 23 -43 2 -27 8 -33 31 -35 33 -4 87 45 87 78 0 14 23 44 60 80 36 35
60 66 60 79 0 12 25 45 60 80 35 34 60 68 60 80 0 12 25 46 60 80 39 39 60 68
60 83 0 14 15 36 40 58 22 19 40 44 40 55 0 24 -537 565 -560 564 -8 0 -21 -3
-27 -6z"/>
<path d="M7650 3610 c-30 -33 -62 -60 -71 -60 -33 0 -49 -12 -49 -38 0 -19
-40 -65 -180 -203 -175 -173 -180 -179 -180 -219 0 -38 6 -47 80 -121 48 -47
80 -88 80 -100 0 -12 32 -52 80 -100 48 -47 80 -88 80 -100 0 -12 32 -52 79
-99 55 -55 81 -87 83 -107 3 -25 7 -28 38 -28 l35 0 5 605 c3 338 1 611 -4
618 -13 19 -17 16 -76 -48z"/>
</g>
</svg>
